# xmcd
#
# Track frame offsets:
#	150
#	19129
#	35052
#	51659
#	65374
#	79761
#	96289
#	112927
#	126748
#	148274
#	162912
#	180704
#	196492
#	214668
#	231034
#	247494
#	264058
#	279834
#	295418
#	312787
#	325524
#
# Disc length: 4643 seconds
#
# Revision: 0
# Processed by: cddbd v1.5.1PL2 Copyright (c) Steve Scherf et al.
# Submitted via: dBpowerAMP V4.0
#
DISCID=3f122115
DTITLE=hilary duff - various
DYEAR=2005
DGENRE=Freestyle
TTITLE0=a
TTITLE1=b
TTITLE2=c
TTITLE3=d
TTITLE4=e
TTITLE5=f
TTITLE6=g
TTITLE7=h
TTITLE8=i
TTITLE9=l
TTITLE10=m
TTITLE11=n
TTITLE12=o
TTITLE13=p
TTITLE14=q
TTITLE15=r
TTITLE16=s
TTITLE17=t
TTITLE18=u
TTITLE19=v
TTITLE20=z
EXTD=
EXTT0=
EXTT1=
EXTT2=
EXTT3=
EXTT4=
EXTT5=
EXTT6=
EXTT7=
EXTT8=
EXTT9=
EXTT10=
EXTT11=
EXTT12=
EXTT13=
EXTT14=
EXTT15=
EXTT16=
EXTT17=
EXTT18=
EXTT19=
EXTT20=
PLAYORDER=
